<?xml version="1.0" encoding="UTF-8" standalone="no"?>
<svg
   xmlns:dc="http://purl.org/dc/elements/1.1/"
   xmlns:cc="http://creativecommons.org/ns#"
   xmlns:rdf="http://www.w3.org/1999/02/22-rdf-syntax-ns#"
   xmlns:svg="http://www.w3.org/2000/svg"
   xmlns="http://www.w3.org/2000/svg"
   xmlns:sodipodi="http://sodipodi.sourceforge.net/DTD/sodipodi-0.dtd"
   xmlns:inkscape="http://www.inkscape.org/namespaces/inkscape"
   width="16"
   height="16"
   viewBox="0 0 16 16"
   version="1.1"
   id="svg5"
   sodipodi:docname="icon.svg"
   inkscape:version="1.0.2-2 (e86c870879, 2021-01-15)">
  <metadata
     id="metadata11">
    <rdf:RDF>
      <cc:Work
         rdf:about="">
        <dc:format>image/svg+xml</dc:format>
        <dc:type
           rdf:resource="http://purl.org/dc/dcmitype/StillImage" />
        <dc:title></dc:title>
      </cc:Work>
    </rdf:RDF>
  </metadata>
  <defs
     id="defs9" />
  <sodipodi:namedview
     pagecolor="#454545"
     bordercolor="#666666"
     borderopacity="1"
     objecttolerance="10"
     gridtolerance="10"
     guidetolerance="10"
     inkscape:pageopacity="0"
     inkscape:pageshadow="2"
     inkscape:window-width="1920"
     inkscape:window-height="1017"
     id="namedview7"
     showgrid="false"
     inkscape:zoom="18.285974"
     inkscape:cx="11.242321"
     inkscape:cy="15.640267"
     inkscape:window-x="-8"
     inkscape:window-y="-8"
     inkscape:window-maximized="1"
     inkscape:current-layer="svg5" />
  <g
     id="Style"
     stroke="none"
     stroke-width="1"
     fill="none"
     fill-rule="evenodd">
    <g
       id="*UI-icons"
       transform="translate(-100,-515)"
       fill="#ffffff"
       fill-rule="nonzero">
      <path
         d="m 102,516 c -0.55228,0 -1,0.44772 -1,1 v 12 c 0,0.55228 0.44772,1 1,1 h 12 c 0.55228,0 1,-0.44772 1,-1 v -12 c 0,-0.55228 -0.44772,-1 -1,-1 z m 0,-1 h 12 c 1.10457,0 2,0.89543 2,2 v 12 c 0,1.10457 -0.89543,2 -2,2 h -12 c -1.10457,0 -2,-0.89543 -2,-2 v -12 c 0,-1.10457 0.89543,-2 2,-2 z"
         id="widget-demo"
         sodipodi:nodetypes="ssssssssssssssssss" />
    </g>
  </g>
  <g
     id="g33"
     transform="matrix(0.9,0,0,0.9,-36.151814,-31.234227)">
    <g
       id="g15"
       style="fill:#ffffff;fill-opacity:1"
       transform="matrix(0.25418659,0,0,0.25418659,40.910891,35.459615)">
      <path
         d="m 48,5 c 6.1,0 11,4.9 11,11 0,6.1 -4.9,11 -11,11 -1.1,0 -2.2,-0.2 -3.3,-0.5 0.8,-1.7 1.9,-3.3 3.4,-4.5 3.3,0 5.9,-2.7 5.9,-6 0,-3.3 -2.7,-6 -6,-6 -2.9,0 -5.3,2.1 -5.9,4.8 -1.3,1.6 -3,2.8 -4.9,3.6 C 37.1,17.6 37,16.8 37,16 37,9.9 41.9,5 48,5 Z m 0,7 c 2.2,0 4,1.8 4,4 0,2.2 -1.8,4 -4,4 -2.2,0 -4,-1.8 -4,-4 0,-2.2 1.8,-4 4,-4 z M 5,16 C 5,9.9 9.9,5 16,5 c 6.1,0 11,4.9 11,11 0,0.8 -0.1,1.6 -0.3,2.4 -1.9,-0.8 -3.6,-2 -4.9,-3.6 -0.6,-2.7 -3,-4.8 -5.9,-4.8 -3.3,0 -6,2.7 -6,6 0,3.3 2.6,5.9 5.9,6 1.4,1.2 2.6,2.8 3.4,4.5 -1,0.3 -2.1,0.5 -3.3,0.5 C 9.9,27 5,22.1 5,16 Z m 11,4 c -2.2,0 -4,-1.8 -4,-4 0,-2.2 1.8,-4 4,-4 2.2,0 4,1.8 4,4 0,2.2 -1.8,4 -4,4 z m 0,39 C 9.9,59 5,54.1 5,48 5,41.9 9.9,37 16,37 c 1.1,0 2.2,0.2 3.3,0.5 -0.8,1.7 -1.9,3.3 -3.4,4.5 -3.3,0.1 -5.9,2.7 -5.9,6 0,3.3 2.7,6 6,6 2.9,0 5.3,-2.1 5.9,-4.8 1.3,-1.6 3,-2.8 4.9,-3.6 0.2,0.8 0.3,1.6 0.3,2.4 -0.1,6.1 -5,11 -11.1,11 z m 0,-7 c -2.2,0 -4,-1.8 -4,-4 0,-2.2 1.8,-4 4,-4 2.2,0 4,1.8 4,4 0,2.2 -1.8,4 -4,4 z m 11.1,-8.7 c -2,0.7 -3.8,1.7 -5.3,3.1 -0.5,-1.8 -1.8,-3.2 -3.5,-4 1.4,-1.5 2.5,-3.2 3.2,-5.2 0,0 0,0 0,0 0,0 0,0 0,0 0,0 0,0 0,0 1.2,-3.4 1.2,-7.1 0,-10.5 0,0 0,0 0,0 0,0 0,0 0,0 0,0 0,0 0,0 -0.7,-1.9 -1.8,-3.7 -3.2,-5.2 1.7,-0.7 3,-2.2 3.5,-4 1.5,1.4 3.3,2.4 5.3,3.1 1.6,0.5 3.2,0.8 4.9,0.8 1.7,0 3.3,-0.3 4.9,-0.8 2,-0.7 3.8,-1.7 5.3,-3.1 0.5,1.8 1.8,3.2 3.4,4 -1.4,1.5 -2.5,3.2 -3.2,5.2 0,0 0,0 0,0 0,0 0,0 0,0 0,0 0,0 0,0 -1.2,3.4 -1.2,7.1 0,10.5 0,0 0,0 0,0 0,0 0,0 0,0 0,0 0,0 0,0 0.7,1.9 1.8,3.7 3.2,5.2 -1.7,0.7 -3,2.2 -3.4,4 -1.5,-1.4 -3.3,-2.4 -5.3,-3.1 0,0 0,0 0,0 0,0 0,0 0,0 0,0 0,0 0,0 -3.2,-1 -6.6,-1 -9.8,0 z M 44,48 c 0,-2.2 1.8,-4 4,-4 2.2,0 4,1.8 4,4 0,2.2 -1.8,4 -4,4 -2.2,0 -4,-1.8 -4,-4 z m 4,11 c -6.1,0 -11,-4.9 -11,-11 0,-0.8 0.1,-1.6 0.3,-2.4 1.9,0.8 3.6,2 4.9,3.6 0.6,2.7 3,4.8 5.9,4.8 3.3,0 6,-2.7 6,-6 0,-3.3 -2.6,-5.9 -5.9,-6 -1.4,-1.2 -2.6,-2.8 -3.4,-4.5 1,-0.3 2.1,-0.5 3.3,-0.5 6.1,0 11,4.9 11,11 0,6.1 -5,11 -11.1,11 z"
         id="path13"
         style="fill:#ffffff;fill-opacity:1" />
    </g>
  </g>
</svg>
