<?xml version="1.0" encoding="UTF-8" standalone="no"?>
<svg
   xmlns:dc="http://purl.org/dc/elements/1.1/"
   xmlns:cc="http://creativecommons.org/ns#"
   xmlns:rdf="http://www.w3.org/1999/02/22-rdf-syntax-ns#"
   xmlns:svg="http://www.w3.org/2000/svg"
   xmlns="http://www.w3.org/2000/svg"
   xmlns:sodipodi="http://sodipodi.sourceforge.net/DTD/sodipodi-0.dtd"
   xmlns:inkscape="http://www.inkscape.org/namespaces/inkscape"
   viewBox="0 0 32 40"
   x="0px"
   y="0px"
   version="1.1"
   id="svg110"
   sodipodi:docname="copy-tms-url.svg"
   inkscape:version="1.0.2-2 (e86c870879, 2021-01-15)">
  <metadata
     id="metadata116">
    <rdf:RDF>
      <cc:Work
         rdf:about="">
        <dc:format>image/svg+xml</dc:format>
        <dc:type
           rdf:resource="http://purl.org/dc/dcmitype/StillImage" />
      </cc:Work>
    </rdf:RDF>
  </metadata>
  <defs
     id="defs114" />
  <sodipodi:namedview
     pagecolor="#ffffff"
     bordercolor="#666666"
     borderopacity="1"
     objecttolerance="10"
     gridtolerance="10"
     guidetolerance="10"
     inkscape:pageopacity="0"
     inkscape:pageshadow="2"
     inkscape:window-width="1920"
     inkscape:window-height="1017"
     id="namedview112"
     showgrid="false"
     inkscape:zoom="3.7565048"
     inkscape:cx="0.29882726"
     inkscape:cy="34.153868"
     inkscape:window-x="-8"
     inkscape:window-y="-8"
     inkscape:window-maximized="1"
     inkscape:current-layer="svg110"
     inkscape:document-rotation="0" />
  <path
     d="M 16,5 C 7.729,5 1,11.729 1,20 1,28.271 7.729,35 16,35 24.271,35 31,28.271 31,20 31,11.729 24.271,5 16,5 Z m 6.314,21.636 C 22.689,24.933 22.916,23.035 22.973,21 h 5.986 c -0.193,2.515 -1.105,4.829 -2.53,6.741 C 25.08,27.28 23.705,26.912 22.314,26.636 Z M 5.571,27.741 C 4.145,25.829 3.234,23.515 3.041,21 h 5.986 c 0.058,2.035 0.285,3.933 0.659,5.636 C 8.295,26.912 6.92,27.28 5.57,27.74 Z M 9.686,13.37 C 9.312,15.071 9.085,16.967 9.027,19 H 3.041 c 0.193,-2.515 1.104,-4.829 2.53,-6.74 1.351,0.462 2.724,0.832 4.115,1.11 z m 1.973,0.338 C 13.092,13.902 14.541,14 16,14 c 1.459,0 2.908,-0.098 4.341,-0.292 0.351,1.559 0.578,3.343 0.638,5.292 h -9.958 c 0.06,-1.949 0.287,-3.733 0.638,-5.292 z M 11.021,21 h 9.957 c -0.06,1.953 -0.288,3.739 -0.639,5.3 -2.877,-0.388 -5.8,-0.388 -8.678,0 -0.352,-1.561 -0.58,-3.348 -0.639,-5.3 z m 11.951,-2 c -0.058,-2.033 -0.285,-3.929 -0.659,-5.63 1.391,-0.278 2.765,-0.648 4.115,-1.111 1.426,1.912 2.337,4.226 2.53,6.741 z m 2.009,-8.371 c -1.045,0.324 -2.104,0.59 -3.173,0.798 C 21.343,9.952 20.759,8.679 20.077,7.665 21.933,8.28 23.6,9.307 24.981,10.629 Z M 15.999,7 c 1.363,0 2.813,1.78 3.799,4.75 -2.521,0.317 -5.076,0.317 -7.598,0 0.986,-2.969 2.436,-4.749 3.799,-4.749 z m -5.808,4.426 C 9.122,11.218 8.063,10.952 7.019,10.628 8.4,9.306 10.067,8.279 11.922,7.664 11.24,8.677 10.656,9.951 10.191,11.425 Z M 7.019,29.372 c 1.044,-0.324 2.103,-0.589 3.171,-0.797 0.464,1.474 1.048,2.747 1.729,3.76 C 10.065,31.72 8.4,30.694 7.019,29.373 Z M 16,33 c -1.363,0 -2.813,-1.78 -3.799,-4.749 2.522,-0.317 5.077,-0.317 7.598,0 C 18.813,31.22 17.363,33 16,33 Z m 5.81,-4.426 c 1.069,0.208 2.128,0.473 3.172,0.797 -1.381,1.321 -3.047,2.348 -4.901,2.963 0.681,-1.013 1.265,-2.286 1.729,-3.76 z"
     id="path104"
     style="fill:#002171;fill-opacity:1" />
</svg>
