<?xml version="1.0" encoding="UTF-8" standalone="no"?>
<svg
   xmlns:dc="http://purl.org/dc/elements/1.1/"
   xmlns:cc="http://creativecommons.org/ns#"
   xmlns:rdf="http://www.w3.org/1999/02/22-rdf-syntax-ns#"
   xmlns:svg="http://www.w3.org/2000/svg"
   xmlns="http://www.w3.org/2000/svg"
   xmlns:sodipodi="http://sodipodi.sourceforge.net/DTD/sodipodi-0.dtd"
   xmlns:inkscape="http://www.inkscape.org/namespaces/inkscape"
   viewBox="0 0 32 40"
   fill="none"
   x="0px"
   y="0px"
   version="1.1"
   id="svg364"
   sodipodi:docname="custom-colorimetry.svg"
   inkscape:version="1.0.2-2 (e86c870879, 2021-01-15)">
  <metadata
     id="metadata370">
    <rdf:RDF>
      <cc:Work
         rdf:about="">
        <dc:format>image/svg+xml</dc:format>
        <dc:type
           rdf:resource="http://purl.org/dc/dcmitype/StillImage" />
      </cc:Work>
    </rdf:RDF>
  </metadata>
  <defs
     id="defs368" />
  <sodipodi:namedview
     pagecolor="#ffffff"
     bordercolor="#666666"
     borderopacity="1"
     objecttolerance="10"
     gridtolerance="10"
     guidetolerance="10"
     inkscape:pageopacity="0"
     inkscape:pageshadow="2"
     inkscape:window-width="1920"
     inkscape:window-height="1017"
     id="namedview366"
     showgrid="false"
     inkscape:zoom="3.7565048"
     inkscape:cx="-11.006766"
     inkscape:cy="34.777625"
     inkscape:window-x="-8"
     inkscape:window-y="-8"
     inkscape:window-maximized="1"
     inkscape:current-layer="svg364"
     inkscape:document-rotation="0" />
  <g
     id="g375"
     transform="translate(0,4)"
     style="fill:#002171;fill-opacity:1">
    <path
       fill-rule="evenodd"
       clip-rule="evenodd"
       d="M 15.874,7 C 15.4299,5.27477 13.8638,4 12,4 10.1362,4 8.57006,5.27477 8.12602,7 H 4 v 2 h 4.12602 c 0.44404,1.7252 2.01018,3 3.87398,3 1.8638,0 3.4299,-1.2748 3.874,-3 H 28 V 7 Z M 14,8 c 0,1.10457 -0.8954,2 -2,2 -1.1046,0 -2,-0.89543 -2,-2 0,-1.10457 0.8954,-2 2,-2 1.1046,0 2,0.89543 2,2 z"
       fill="#000000"
       id="path354"
       style="fill:#002171;fill-opacity:1" />
    <path
       fill-rule="evenodd"
       clip-rule="evenodd"
       d="M 8.12602,23 H 4 v 2 h 4.12602 c 0.44404,1.7252 2.01018,3 3.87398,3 1.8638,0 3.4299,-1.2748 3.874,-3 H 28 V 23 H 15.874 C 15.4299,21.2748 13.8638,20 12,20 10.1362,20 8.57006,21.2748 8.12602,23 Z M 14,24 c 0,-1.1046 -0.8954,-2 -2,-2 -1.1046,0 -2,0.8954 -2,2 0,1.1046 0.8954,2 2,2 1.1046,0 2,-0.8954 2,-2 z"
       fill="#000000"
       id="path356"
       style="fill:#002171;fill-opacity:1" />
    <path
       fill-rule="evenodd"
       clip-rule="evenodd"
       d="M 28,15 H 23.874 C 23.4299,13.2748 21.8638,12 20,12 c -1.8638,0 -3.4299,1.2748 -3.874,3 H 4 v 2 h 12.126 c 0.4441,1.7252 2.0102,3 3.874,3 1.8638,0 3.4299,-1.2748 3.874,-3 H 28 Z m -8,3 c -1.1046,0 -2,-0.8954 -2,-2 0,-1.1046 0.8954,-2 2,-2 1.1046,0 2,0.8954 2,2 0,1.1046 -0.8954,2 -2,2 z"
       fill="#000000"
       id="path358"
       style="fill:#002171;fill-opacity:1" />
  </g>
</svg>
