<?xml version="1.0" encoding="UTF-8" standalone="no"?>
<svg
   xmlns:dc="http://purl.org/dc/elements/1.1/"
   xmlns:cc="http://creativecommons.org/ns#"
   xmlns:rdf="http://www.w3.org/1999/02/22-rdf-syntax-ns#"
   xmlns:svg="http://www.w3.org/2000/svg"
   xmlns="http://www.w3.org/2000/svg"
   xmlns:sodipodi="http://sodipodi.sourceforge.net/DTD/sodipodi-0.dtd"
   xmlns:inkscape="http://www.inkscape.org/namespaces/inkscape"
   width="122.51509mm"
   height="108.4737mm"
   viewBox="0 0 122.51509 108.4737"
   version="1.1"
   id="svg8"
   inkscape:version="1.0.2-2 (e86c870879, 2021-01-15)"
   sodipodi:docname="imajnet.svg"
   inkscape:export-filename="C:\Users\ext-hpascault\OneDrive - Eramet SA\Documents\Workspace\DEV\JS\widgets\SelectionToImagnet\images\icon.png"
   inkscape:export-xdpi="20.248724"
   inkscape:export-ydpi="20.248724">
  <defs
     id="defs2" />
  <sodipodi:namedview
     id="base"
     pagecolor="#ffffff"
     bordercolor="#666666"
     borderopacity="1.0"
     inkscape:pageopacity="0.0"
     inkscape:pageshadow="2"
     inkscape:zoom="0.96377841"
     inkscape:cx="404.9334"
     inkscape:cy="52.514276"
     inkscape:document-units="mm"
     inkscape:current-layer="layer1"
     inkscape:document-rotation="0"
     showgrid="false"
     inkscape:window-width="1920"
     inkscape:window-height="1017"
     inkscape:window-x="-8"
     inkscape:window-y="-8"
     inkscape:window-maximized="1" />
  <metadata
     id="metadata5">
    <rdf:RDF>
      <cc:Work
         rdf:about="">
        <dc:format>image/svg+xml</dc:format>
        <dc:type
           rdf:resource="http://purl.org/dc/dcmitype/StillImage" />
        <dc:title></dc:title>
      </cc:Work>
    </rdf:RDF>
  </metadata>
  <g
     inkscape:label="Calque 1"
     inkscape:groupmode="layer"
     id="layer1"
     transform="translate(-43.742819,-94.263509)">
    <path
       style="fill:#ffffff;fill-opacity:1;stroke:#ffffff;stroke-width:2.85655;stroke-miterlimit:4;stroke-dasharray:none;stroke-opacity:1"
       d="m 128.24737,178.48212 -0.009,-23.28652 4.86591,4.5941 c 2.67626,2.52675 7.15984,6.76054 9.96352,9.40843 2.8037,2.64792 8.01715,7.57156 11.5855,10.94151 3.56833,3.36993 6.53821,6.25563 6.59971,6.41267 0.0648,0.16578 -0.58295,0.21346 -1.54472,0.11373 -0.91112,-0.0944 -5.28341,-0.2583 -9.71621,-0.364 l -8.05965,-0.19221 -6.46084,7.35273 c -3.55348,4.04401 -6.63022,7.56723 -6.83721,7.8294 -0.29676,0.37588 -0.37846,-4.44852 -0.38618,-22.80981 z m -73.230173,-3.55286 c -4.757442,-1.30974 -8.084823,-5.10195 -9.410228,-10.72488 -0.579369,-2.45793 -0.590414,-4.48174 -0.03863,-7.07852 1.172706,-5.51894 4.545958,-9.60454 9.325626,-11.29496 l 1.575981,-0.55738 -0.148855,-2.8458 c -0.38313,-7.32477 2.038478,-13.97504 6.51564,-17.89337 2.90524,-2.54259 7.789625,-4.63353 12.30492,-5.26755 l 1.433189,-0.20124 0.363374,-1.847 c 0.454682,-2.31109 2.016306,-6.04394 3.493349,-8.3504 0.620337,-0.96866 2.131972,-2.81824 3.359191,-4.11018 7.022303,-7.39267 15.287371,-10.444916 23.002796,-8.494831 8.3251,2.104156 15.87871,9.083021 18.95524,17.512881 1.52678,4.18355 1.95828,7.28676 1.79619,12.9186 -0.17175,5.96739 -0.808,9.11727 -2.10325,10.41251 -1.07482,1.07482 -2.61909,1.15647 -3.83176,0.20256 -0.99115,-0.77963 -0.98069,-1.49942 0.0972,-6.68698 0.82823,-3.98578 0.84576,-7.42408 0.0535,-10.52654 -2.21113,-8.66015 -6.9533,-14.38603 -13.9138,-16.8 -2.50711,-0.86949 -7.41441,-0.92965 -10.465769,-0.12828 -6.600987,1.73356 -11.786615,6.98261 -14.219407,14.39324 -0.356644,1.0864 -0.648448,2.14969 -0.648448,2.36287 0,0.21315 0.674972,0.61174 1.499937,0.88575 3.188091,1.05891 6.540622,3.95482 9.187287,7.93598 1.222571,1.839 1.397787,2.29384 1.229411,3.19136 -0.250577,1.33565 -1.733711,2.9446 -2.714386,2.9446 -0.734507,0 -1.807709,-0.93985 -2.822237,-2.47156 -0.281369,-0.42481 -1.239745,-1.51118 -2.129728,-2.41413 -3.32174,-3.37023 -8.929284,-5.08173 -13.081493,-3.99269 -9.065066,2.37758 -13.309548,9.92821 -11.407713,20.29347 0.304911,1.66184 0.463048,3.38541 0.351413,3.83021 -0.29073,1.15835 -1.655248,1.74677 -4.050778,1.74677 -3.284873,0 -5.843924,1.63848 -7.175383,4.59426 -0.340458,0.75579 -0.511368,2.0275 -0.524362,3.90177 -0.01647,2.37496 0.09851,3.03316 0.788149,4.51276 0.471528,1.01164 1.266985,2.08278 1.912126,2.57485 2.316225,1.76668 1.306367,1.71736 35.165791,1.71736 h 31.15451 v 3.08949 3.08945 l -31.744267,-0.0209 c -24.234612,-0.016 -32.073152,-0.1114 -33.134522,-0.40359 z m 99.084913,-10.01072 c -1.21351,-0.75189 -2.18729,-2.87388 -1.90619,-4.15375 0.47835,-2.17783 1.92346,-3.32998 4.17676,-3.32998 1.08361,0 1.47739,0.18992 2.48691,1.19943 1.02975,1.02975 1.1988,1.39034 1.19488,2.54881 -0.006,1.71268 -0.50411,2.69178 -1.82208,3.57995 -1.24888,0.84163 -2.92132,0.90459 -4.13028,0.15554 z m 5.1134,-10.41335 c -3.0091,-1.30815 -2.92551,-6.18792 0.12787,-7.4637 3.04026,-1.27031 6.21813,1.60779 5.34706,4.84266 -0.33738,1.25292 -1.27903,2.26188 -2.56614,2.74955 -1.12571,0.42653 -1.68931,0.40163 -2.90879,-0.12851 z m -1.5252,-11.92673 c -1.23047,-0.3602 -2.4894,-1.83175 -2.74846,-3.21269 -0.37977,-2.02429 1.80525,-4.79301 3.78253,-4.79301 2.20859,0 4.11184,1.90088 4.11401,4.10887 0.002,2.83598 -2.44432,4.6883 -5.14808,3.89683 z m -9.27722,-9.53684 c -1.96388,-1.19745 -2.57611,-3.46329 -1.49873,-5.5467 1.30172,-2.51726 5.5118,-2.5408 6.80603,-0.0383 1.90192,3.6779 -1.8902,7.66828 -5.3073,5.58475 z m -11.44175,-2.01636 c -1.50891,-0.65599 -2.3089,-2.14636 -2.14843,-4.00253 0.11012,-1.27336 0.3165,-1.69474 1.24845,-2.54881 0.94876,-0.86947 1.3458,-1.02324 2.64212,-1.02324 1.18178,0 1.73513,0.17633 2.45547,0.78248 1.79799,1.51289 2.01461,4.14723 0.47737,5.80509 -1.35742,1.46392 -2.85206,1.77946 -4.67498,0.98701 z"
       id="path30" />
  </g>
</svg>
